<svg width="20" height="20" viewBox="0 0 20 20" fill="none" xmlns="http://www.w3.org/2000/svg">
<path d="M3 18C2.44772 18 2 17.5523 2 17V6.5H18V17C18 17.5523 17.5523 18 17 18H3Z" fill="black"/>
<path d="M17 7.5H3V17H17V7.5ZM4.41406 5.5H15.5859L13.0859 3H6.91406L4.41406 5.5ZM19 17C19 18.1046 18.1046 19 17 19H3C1.89543 19 1 18.1046 1 17V6.08594L5.5 1.58594C5.87504 1.2109 6.38368 1.00004 6.91406 1H13.0859C13.6163 1.00004 14.125 1.2109 14.5 1.58594L19 6.08594V17Z" fill="black"/>
<path d="M5.5 12L9 12L9 7.5L11 7.5L11 12L14.5 12L10 16.5L5.5 12Z" fill="white"/>
</svg>
