<svg width="20" height="20" viewBox="0 0 20 20" fill="none" xmlns="http://www.w3.org/2000/svg">
<path fill-rule="evenodd" clip-rule="evenodd" d="M19 17C19 18.1046 18.1046 19 17 19H3C1.89543 19 1 18.1046 1 17V5.58594L5 1.58594C5.37504 1.2109 5.88368 1.00004 6.41406 1H13.5859C14.1163 1.00004 14.625 1.2109 15 1.58594L19 5.58594V17ZM6.41406 3H13.5859L17 6.41406V17H3V6.41406L6.41406 3Z" fill="black"/>
<path d="M3 5H17V7H3V5Z" fill="black"/>
<path d="M5.5 11.5H9V8.5H11V11.5H14.5L10 16L5.5 11.5Z" fill="black"/>
</svg>
