<svg width="20" height="20" viewBox="0 0 20 20" fill="none" xmlns="http://www.w3.org/2000/svg">
<path d="M3 18C2.44772 18 2 17.5523 2 17V6H18V17C18 17.5523 17.5523 18 17 18H3Z" fill="black"/>
<path d="M2 6V17C2 17.5523 2.44772 18 3 18H17C17.5523 18 18 17.5523 18 17V6M2 6L5.70711 2.29289C5.89464 2.10536 6.149 2 6.41421 2H13.5858C13.851 2 14.1054 2.10536 14.2929 2.29289L18 6M2 6H18" stroke="black" stroke-width="2"/>
<path d="M3 18C2.44772 18 2 17.5523 2 17V6H18V17C18 17.5523 17.5523 18 17 18H3Z" fill="black"/>
<path d="M17 7H3V17H17V7ZM4.41406 5H15.5859L13.5859 3H6.41406L4.41406 5ZM19 17C19 18.1046 18.1046 19 17 19H3C1.89543 19 1 18.1046 1 17V5.58594L5 1.58594C5.37504 1.2109 5.88368 1.00004 6.41406 1H13.5859C14.1163 1.00004 14.625 1.2109 15 1.58594L19 5.58594V17Z" fill="black"/>
<path d="M5.5 12L9 12L9 7.5L11 7.5L11 12L14.5 12L10 16.5L5.5 12Z" fill="white"/>
</svg>
