<svg width="329" height="40" viewBox="0 0 329 40" fill="none" xmlns="http://www.w3.org/2000/svg">
<g clip-path="url(#clip0)">
<path d="M36 7.99998H34V18.5L40 24.5V12C40 10.9391 39.5786 9.92168 38.8284 9.1716C38.0783 8.42144 37.0609 7.99998 36 7.99998Z" fill="#DD3333"/>
<path d="M30.8284 1.17158C30.0783 0.421427 29.0609 0 28 0H15.5L21.2912 5.79549C21.588 5.66773 21.9105 5.59999 22.24 5.59999C22.7146 5.59999 23.1787 5.74075 23.5734 6.00446C23.9681 6.26818 24.2757 6.64301 24.4573 7.08155C24.639 7.5201 24.6865 8.00264 24.5939 8.46824C24.5611 8.63296 24.5113 8.79295 24.4458 8.9458L32 16.5V4C32 2.93914 31.5786 1.92172 30.8284 1.17158Z" fill="#DD3333"/>
<path d="M32 32L40 40V24L34 18V22C34 23.0609 33.5786 24.0783 32.8284 24.8284C32.0783 25.5786 31.0609 26 30 26H25.5L31.5 32H32Z" fill="#F2B600"/>
<path d="M30.8284 22.8284C31.5786 22.0783 32 21.0609 32 20V16L24.5711 8.5711C24.4668 8.99665 24.2478 9.38632 23.937 9.69704C23.6014 10.0327 23.1738 10.2613 22.7082 10.3539C22.2426 10.4465 21.7601 10.399 21.3215 10.2174C20.883 10.0357 20.5082 9.72808 20.2445 9.33336C19.9807 8.93872 19.84 8.47472 19.84 7.99998C19.84 7.36348 20.0929 6.75303 20.543 6.30294C20.8558 5.99006 21.2462 5.7725 21.6689 5.66892L16 0H4C2.93914 0 1.92172 0.421427 1.17158 1.17157C1.08778 1.25536 1.00809 1.34249 0.932634 1.43264L7.07747 7.57748C7.16324 7.09792 7.39373 6.65216 7.74296 6.30294C8.19304 5.85285 8.80344 5.6 9.44 5.6C9.91464 5.6 10.3787 5.74076 10.7734 6.00447C11.1681 6.26819 11.4757 6.64301 11.6573 7.08156C11.839 7.5201 11.8865 8.00264 11.7939 8.46824C11.7013 8.93376 11.4727 9.36144 11.137 9.69704C10.8014 10.0327 10.3738 10.2613 9.90824 10.3539C9.89303 10.3569 9.87779 10.3598 9.86254 10.3625L13.1 13.6H24.88C23.7801 16.7254 21.1058 17.9841 17.8093 18.3093L23.5 24H28C29.0609 24 30.0783 23.5786 30.8284 22.8284Z" fill="#F2B600"/>
<path d="M1.17158 1.17158C0.421427 1.92172 0 2.93914 0 4V16.5L7.5 24H24L18.2617 18.2582C17.4882 18.357 16.6766 18.4 15.84 18.4C11.664 18.4 8.112 17.328 6.8 13.6H13.6016L10.2592 10.2559C10.1453 10.2972 10.0281 10.3301 9.90824 10.3539C9.44264 10.4465 8.96008 10.399 8.52152 10.2174C8.08304 10.0357 7.70816 9.72808 7.44447 9.33336C7.18076 8.93872 7.04 8.47472 7.04 7.99998C7.04 7.7192 7.0892 7.4435 7.18283 7.1844L1.17158 1.17158Z" fill="#00AF89"/>
<path d="M32 32L26 26H9.5L15.5 32H32Z" fill="#00AF89"/>
<path d="M9.1716 30.8284C9.92168 31.5786 10.9391 32 12 32H16L10 26H8V28C8 29.0609 8.42144 30.0783 9.1716 30.8284Z" fill="#9F33CC"/>
<path d="M0 32L8 24L0 16V32Z" fill="#9F33CC"/>
</g>
<path d="M67.82 19.359C68.0367 19.359 68.2187 19.437 68.366 19.593L69.913 21.244C69.1503 22.2147 68.2013 22.9513 67.066 23.454C65.9393 23.9567 64.596 24.208 63.036 24.208C61.6233 24.208 60.3537 23.9697 59.227 23.493C58.1003 23.0077 57.1427 22.336 56.354 21.478C55.5653 20.62 54.9587 19.6017 54.534 18.423C54.1093 17.2443 53.897 15.9573 53.897 14.562C53.897 13.626 53.9967 12.7377 54.196 11.897C54.404 11.0477 54.703 10.2677 55.093 9.557C55.483 8.84633 55.951 8.205 56.497 7.633C57.0517 7.061 57.6757 6.57567 58.369 6.177C59.0623 5.76967 59.8163 5.462 60.631 5.254C61.4543 5.03733 62.3297 4.929 63.257 4.929C63.9503 4.929 64.6047 4.98967 65.22 5.111C65.844 5.23233 66.4247 5.40133 66.962 5.618C67.4993 5.83467 67.9933 6.099 68.444 6.411C68.9033 6.71433 69.315 7.048 69.679 7.412L68.366 9.206C68.288 9.31867 68.1883 9.41833 68.067 9.505C67.9457 9.59167 67.781 9.635 67.573 9.635C67.365 9.635 67.1527 9.56133 66.936 9.414C66.728 9.26667 66.468 9.102 66.156 8.92C65.8527 8.738 65.467 8.57333 64.999 8.426C64.5397 8.27867 63.9547 8.205 63.244 8.205C62.4553 8.205 61.7317 8.348 61.073 8.634C60.4143 8.92 59.8467 9.336 59.37 9.882C58.902 10.4193 58.538 11.0823 58.278 11.871C58.018 12.6597 57.888 13.5567 57.888 14.562C57.888 15.576 58.0267 16.4817 58.304 17.279C58.59 18.0677 58.9757 18.735 59.461 19.281C59.955 19.827 60.527 20.243 61.177 20.529C61.8357 20.8063 62.5377 20.945 63.283 20.945C63.725 20.945 64.1237 20.9233 64.479 20.88C64.843 20.8367 65.1767 20.763 65.48 20.659C65.792 20.555 66.0823 20.4207 66.351 20.256C66.6283 20.0913 66.9057 19.8833 67.183 19.632C67.2783 19.554 67.378 19.489 67.482 19.437C67.586 19.385 67.6987 19.359 67.82 19.359ZM77.3864 10.389C78.3917 10.389 79.306 10.5493 80.1294 10.87C80.9527 11.1907 81.659 11.65 82.2484 12.248C82.8377 12.8373 83.2927 13.5567 83.6134 14.406C83.934 15.2553 84.0944 16.213 84.0944 17.279C84.0944 18.345 83.934 19.307 83.6134 20.165C83.2927 21.0143 82.8377 21.738 82.2484 22.336C81.659 22.934 80.9527 23.3933 80.1294 23.714C79.306 24.0347 78.3917 24.195 77.3864 24.195C76.3724 24.195 75.4494 24.0347 74.6174 23.714C73.794 23.3933 73.0877 22.934 72.4984 22.336C71.909 21.738 71.4497 21.0143 71.1204 20.165C70.7997 19.307 70.6394 18.345 70.6394 17.279C70.6394 16.213 70.7997 15.2553 71.1204 14.406C71.4497 13.5567 71.909 12.8373 72.4984 12.248C73.0877 11.65 73.794 11.1907 74.6174 10.87C75.4494 10.5493 76.3724 10.389 77.3864 10.389ZM77.3864 21.504C78.409 21.504 79.1674 21.153 79.6614 20.451C80.1554 19.7403 80.4024 18.6873 80.4024 17.292C80.4024 15.9053 80.1554 14.861 79.6614 14.159C79.1674 13.4483 78.409 13.093 77.3864 13.093C76.3377 13.093 75.5664 13.4483 75.0724 14.159C74.5784 14.861 74.3314 15.9053 74.3314 17.292C74.3314 18.6873 74.5784 19.7403 75.0724 20.451C75.5664 21.153 76.3377 21.504 77.3864 21.504ZM89.6752 12.157C89.9439 11.897 90.2212 11.6587 90.5072 11.442C90.8019 11.2253 91.1096 11.039 91.4302 10.883C91.7596 10.727 92.1106 10.6057 92.4832 10.519C92.8646 10.4323 93.2762 10.389 93.7182 10.389C94.4462 10.389 95.0919 10.5147 95.6552 10.766C96.2186 11.0173 96.6909 11.3683 97.0722 11.819C97.4622 12.2697 97.7526 12.807 97.9432 13.431C98.1426 14.055 98.2422 14.7397 98.2422 15.485V24H94.6672V15.485C94.6672 14.7397 94.4939 14.1633 94.1472 13.756C93.8006 13.34 93.2892 13.132 92.6132 13.132C92.1106 13.132 91.6382 13.2403 91.1962 13.457C90.7542 13.6737 90.3339 13.977 89.9352 14.367V24H86.3472V10.597H88.5572C89.0079 10.597 89.3069 10.805 89.4542 11.221L89.6752 12.157ZM113.132 10.597L107.867 24H104.617L99.3515 10.597H102.329C102.589 10.597 102.805 10.6577 102.979 10.779C103.152 10.9003 103.273 11.0563 103.343 11.247L105.592 17.877C105.739 18.3277 105.869 18.7697 105.982 19.203C106.094 19.6277 106.194 20.0567 106.281 20.49C106.376 20.0567 106.48 19.6277 106.593 19.203C106.714 18.7697 106.853 18.3277 107.009 17.877L109.336 11.247C109.396 11.0563 109.513 10.9003 109.687 10.779C109.86 10.6577 110.064 10.597 110.298 10.597H113.132ZM122.728 15.719C122.728 15.3463 122.676 14.991 122.572 14.653C122.477 14.315 122.321 14.016 122.104 13.756C121.887 13.496 121.614 13.2923 121.285 13.145C120.956 12.989 120.561 12.911 120.102 12.911C119.244 12.911 118.572 13.1537 118.087 13.639C117.602 14.1243 117.285 14.8177 117.138 15.719H122.728ZM117.086 17.851C117.199 19.1077 117.554 20.0263 118.152 20.607C118.759 21.1877 119.547 21.478 120.518 21.478C121.012 21.478 121.437 21.4217 121.792 21.309C122.156 21.1877 122.472 21.0577 122.741 20.919C123.018 20.7717 123.265 20.6417 123.482 20.529C123.707 20.4077 123.928 20.347 124.145 20.347C124.422 20.347 124.639 20.451 124.795 20.659L125.835 21.959C125.454 22.401 125.033 22.7693 124.574 23.064C124.115 23.35 123.638 23.5797 123.144 23.753C122.65 23.9177 122.152 24.0303 121.649 24.091C121.146 24.1603 120.661 24.195 120.193 24.195C119.257 24.195 118.382 24.0433 117.567 23.74C116.761 23.428 116.055 22.973 115.448 22.375C114.85 21.7683 114.378 21.0187 114.031 20.126C113.684 19.2333 113.511 18.1977 113.511 17.019C113.511 16.109 113.658 15.251 113.953 14.445C114.256 13.639 114.69 12.937 115.253 12.339C115.816 11.741 116.501 11.2687 117.307 10.922C118.113 10.5667 119.023 10.389 120.037 10.389C120.895 10.389 121.684 10.5277 122.403 10.805C123.131 11.0737 123.755 11.468 124.275 11.988C124.804 12.508 125.211 13.1493 125.497 13.912C125.792 14.666 125.939 15.5283 125.939 16.499C125.939 16.7677 125.926 16.9887 125.9 17.162C125.874 17.3353 125.831 17.474 125.77 17.578C125.709 17.682 125.627 17.7557 125.523 17.799C125.419 17.8337 125.285 17.851 125.12 17.851H117.086ZM131.494 12.157C131.762 11.897 132.04 11.6587 132.326 11.442C132.62 11.2253 132.928 11.039 133.249 10.883C133.578 10.727 133.929 10.6057 134.302 10.519C134.683 10.4323 135.095 10.389 135.537 10.389C136.265 10.389 136.91 10.5147 137.474 10.766C138.037 11.0173 138.509 11.3683 138.891 11.819C139.281 12.2697 139.571 12.807 139.762 13.431C139.961 14.055 140.061 14.7397 140.061 15.485V24H136.486V15.485C136.486 14.7397 136.312 14.1633 135.966 13.756C135.619 13.34 135.108 13.132 134.432 13.132C133.929 13.132 133.457 13.2403 133.015 13.457C132.573 13.6737 132.152 13.977 131.754 14.367V24H128.166V10.597H130.376C130.826 10.597 131.125 10.805 131.273 11.221L131.494 12.157ZM146.61 10.597V24H143.022V10.597H146.61ZM147.039 6.788C147.039 7.09133 146.978 7.373 146.857 7.633C146.735 7.893 146.571 8.12267 146.363 8.322C146.163 8.52133 145.925 8.67733 145.648 8.79C145.379 8.90267 145.089 8.959 144.777 8.959C144.482 8.959 144.2 8.90267 143.932 8.79C143.672 8.67733 143.442 8.52133 143.243 8.322C143.043 8.12267 142.883 7.893 142.762 7.633C142.649 7.373 142.593 7.09133 142.593 6.788C142.593 6.48467 142.649 6.203 142.762 5.943C142.883 5.67433 143.043 5.44033 143.243 5.241C143.442 5.04167 143.672 4.88567 143.932 4.773C144.2 4.66033 144.482 4.604 144.777 4.604C145.089 4.604 145.379 4.66033 145.648 4.773C145.925 4.88567 146.163 5.04167 146.363 5.241C146.571 5.44033 146.735 5.67433 146.857 5.943C146.978 6.203 147.039 6.48467 147.039 6.788ZM158.173 15.719C158.173 15.3463 158.121 14.991 158.017 14.653C157.922 14.315 157.766 14.016 157.549 13.756C157.333 13.496 157.06 13.2923 156.73 13.145C156.401 12.989 156.007 12.911 155.547 12.911C154.689 12.911 154.018 13.1537 153.532 13.639C153.047 14.1243 152.731 14.8177 152.583 15.719H158.173ZM152.531 17.851C152.644 19.1077 152.999 20.0263 153.597 20.607C154.204 21.1877 154.993 21.478 155.963 21.478C156.457 21.478 156.882 21.4217 157.237 21.309C157.601 21.1877 157.918 21.0577 158.186 20.919C158.464 20.7717 158.711 20.6417 158.927 20.529C159.153 20.4077 159.374 20.347 159.59 20.347C159.868 20.347 160.084 20.451 160.24 20.659L161.28 21.959C160.899 22.401 160.479 22.7693 160.019 23.064C159.56 23.35 159.083 23.5797 158.589 23.753C158.095 23.9177 157.597 24.0303 157.094 24.091C156.592 24.1603 156.106 24.195 155.638 24.195C154.702 24.195 153.827 24.0433 153.012 23.74C152.206 23.428 151.5 22.973 150.893 22.375C150.295 21.7683 149.823 21.0187 149.476 20.126C149.13 19.2333 148.956 18.1977 148.956 17.019C148.956 16.109 149.104 15.251 149.398 14.445C149.702 13.639 150.135 12.937 150.698 12.339C151.262 11.741 151.946 11.2687 152.752 10.922C153.558 10.5667 154.468 10.389 155.482 10.389C156.34 10.389 157.129 10.5277 157.848 10.805C158.576 11.0737 159.2 11.468 159.72 11.988C160.249 12.508 160.656 13.1493 160.942 13.912C161.237 14.666 161.384 15.5283 161.384 16.499C161.384 16.7677 161.371 16.9887 161.345 17.162C161.319 17.3353 161.276 17.474 161.215 17.578C161.155 17.682 161.072 17.7557 160.968 17.799C160.864 17.8337 160.73 17.851 160.565 17.851H152.531ZM166.939 12.157C167.208 11.897 167.485 11.6587 167.771 11.442C168.066 11.2253 168.373 11.039 168.694 10.883C169.023 10.727 169.374 10.6057 169.747 10.519C170.128 10.4323 170.54 10.389 170.982 10.389C171.71 10.389 172.356 10.5147 172.919 10.766C173.482 11.0173 173.955 11.3683 174.336 11.819C174.726 12.2697 175.016 12.807 175.207 13.431C175.406 14.055 175.506 14.7397 175.506 15.485V24H171.931V15.485C171.931 14.7397 171.758 14.1633 171.411 13.756C171.064 13.34 170.553 13.132 169.877 13.132C169.374 13.132 168.902 13.2403 168.46 13.457C168.018 13.6737 167.598 13.977 167.199 14.367V24H163.611V10.597H165.821C166.272 10.597 166.571 10.805 166.718 11.221L166.939 12.157ZM182.813 24.208C182.206 24.208 181.669 24.1213 181.201 23.948C180.733 23.766 180.339 23.5103 180.018 23.181C179.697 22.8517 179.455 22.453 179.29 21.985C179.125 21.517 179.043 20.9883 179.043 20.399V13.171H177.782C177.591 13.171 177.427 13.1103 177.288 12.989C177.158 12.8677 177.093 12.6857 177.093 12.443V11.039L179.238 10.649L179.966 7.178C180.061 6.788 180.326 6.593 180.759 6.593H182.631V10.675H186.089V13.171H182.631V20.165C182.631 20.5377 182.718 20.8323 182.891 21.049C183.073 21.2657 183.329 21.374 183.658 21.374C183.831 21.374 183.979 21.3567 184.1 21.322C184.221 21.2787 184.325 21.2353 184.412 21.192C184.499 21.14 184.577 21.0967 184.646 21.062C184.724 21.0187 184.802 20.997 184.88 20.997C184.984 20.997 185.071 21.023 185.14 21.075C185.209 21.1183 185.279 21.1963 185.348 21.309L186.427 23.025C185.933 23.415 185.374 23.7097 184.75 23.909C184.126 24.1083 183.48 24.208 182.813 24.208ZM211.588 14.562C211.588 15.94 211.354 17.2097 210.886 18.371C210.427 19.5237 209.773 20.516 208.923 21.348C208.083 22.18 207.069 22.83 205.881 23.298C204.694 23.766 203.377 24 201.929 24H194.675V5.137H201.929C203.377 5.137 204.694 5.371 205.881 5.839C207.069 6.307 208.083 6.96133 208.923 7.802C209.773 8.634 210.427 9.62633 210.886 10.779C211.354 11.9317 211.588 13.1927 211.588 14.562ZM207.584 14.562C207.584 13.574 207.454 12.6857 207.194 11.897C206.934 11.1083 206.562 10.441 206.076 9.895C205.591 9.349 204.997 8.92867 204.295 8.634C203.602 8.33933 202.813 8.192 201.929 8.192H198.601V20.945H201.929C202.813 20.945 203.602 20.802 204.295 20.516C204.997 20.2213 205.591 19.801 206.076 19.255C206.562 18.7003 206.934 18.0287 207.194 17.24C207.454 16.4513 207.584 15.5587 207.584 14.562ZM217.449 10.597V24H213.861V10.597H217.449ZM217.878 6.788C217.878 7.09133 217.818 7.373 217.696 7.633C217.575 7.893 217.41 8.12267 217.202 8.322C217.003 8.52133 216.765 8.67733 216.487 8.79C216.219 8.90267 215.928 8.959 215.616 8.959C215.322 8.959 215.04 8.90267 214.771 8.79C214.511 8.67733 214.282 8.52133 214.082 8.322C213.883 8.12267 213.723 7.893 213.601 7.633C213.489 7.373 213.432 7.09133 213.432 6.788C213.432 6.48467 213.489 6.203 213.601 5.943C213.723 5.67433 213.883 5.44033 214.082 5.241C214.282 5.04167 214.511 4.88567 214.771 4.773C215.04 4.66033 215.322 4.604 215.616 4.604C215.928 4.604 216.219 4.66033 216.487 4.773C216.765 4.88567 217.003 5.04167 217.202 5.241C217.41 5.44033 217.575 5.67433 217.696 5.943C217.818 6.203 217.878 6.48467 217.878 6.788ZM228.844 13.353C228.749 13.5003 228.649 13.6087 228.545 13.678C228.45 13.7387 228.316 13.769 228.142 13.769C227.969 13.769 227.791 13.7257 227.609 13.639C227.427 13.5523 227.224 13.4613 226.998 13.366C226.773 13.262 226.513 13.1667 226.218 13.08C225.932 12.9933 225.599 12.95 225.217 12.95C224.637 12.95 224.186 13.0713 223.865 13.314C223.545 13.548 223.384 13.86 223.384 14.25C223.384 14.5187 223.475 14.744 223.657 14.926C223.839 15.108 224.078 15.2683 224.372 15.407C224.676 15.537 225.018 15.6627 225.399 15.784C225.781 15.8967 226.171 16.0223 226.569 16.161C226.977 16.2997 227.371 16.46 227.752 16.642C228.134 16.824 228.472 17.0537 228.766 17.331C229.07 17.5997 229.312 17.929 229.494 18.319C229.676 18.7003 229.767 19.164 229.767 19.71C229.767 20.36 229.646 20.9623 229.403 21.517C229.169 22.063 228.823 22.5353 228.363 22.934C227.904 23.3327 227.332 23.6447 226.647 23.87C225.963 24.0953 225.174 24.208 224.281 24.208C223.822 24.208 223.367 24.1647 222.916 24.078C222.466 24 222.037 23.8873 221.629 23.74C221.222 23.584 220.841 23.4063 220.485 23.207C220.13 23.0077 219.822 22.791 219.562 22.557L220.394 21.218C220.49 21.062 220.607 20.9407 220.745 20.854C220.893 20.7673 221.079 20.724 221.304 20.724C221.521 20.724 221.72 20.7803 221.902 20.893C222.084 20.997 222.288 21.114 222.513 21.244C222.739 21.3653 223.003 21.4823 223.306 21.595C223.618 21.699 224.004 21.751 224.463 21.751C224.81 21.751 225.109 21.712 225.36 21.634C225.612 21.556 225.815 21.452 225.971 21.322C226.127 21.1833 226.24 21.0317 226.309 20.867C226.387 20.6937 226.426 20.516 226.426 20.334C226.426 20.0393 226.331 19.801 226.14 19.619C225.958 19.4283 225.716 19.2637 225.412 19.125C225.118 18.9863 224.775 18.8607 224.385 18.748C223.995 18.6353 223.597 18.5097 223.189 18.371C222.791 18.2323 222.396 18.0677 222.006 17.877C221.625 17.6863 221.283 17.448 220.979 17.162C220.685 16.8673 220.442 16.5077 220.251 16.083C220.069 15.6583 219.978 15.1427 219.978 14.536C219.978 13.9813 220.087 13.457 220.303 12.963C220.52 12.4603 220.845 12.0183 221.278 11.637C221.712 11.2557 222.249 10.9523 222.89 10.727C223.54 10.5017 224.29 10.389 225.139 10.389C226.093 10.389 226.959 10.545 227.739 10.857C228.519 11.169 229.161 11.5763 229.663 12.079L228.844 13.353ZM241.737 13.587C241.633 13.7257 241.529 13.834 241.425 13.912C241.321 13.9813 241.174 14.016 240.983 14.016C240.81 14.016 240.641 13.9683 240.476 13.873C240.32 13.769 240.138 13.6607 239.93 13.548C239.722 13.4267 239.475 13.3183 239.189 13.223C238.903 13.119 238.548 13.067 238.123 13.067C237.586 13.067 237.118 13.1667 236.719 13.366C236.329 13.5567 236.004 13.834 235.744 14.198C235.484 14.562 235.289 15.004 235.159 15.524C235.038 16.044 234.977 16.629 234.977 17.279C234.977 18.6483 235.25 19.697 235.796 20.425C236.351 21.153 237.105 21.517 238.058 21.517C238.388 21.517 238.669 21.491 238.903 21.439C239.146 21.3783 239.354 21.3047 239.527 21.218C239.709 21.1313 239.865 21.036 239.995 20.932C240.125 20.828 240.247 20.7327 240.359 20.646C240.481 20.5593 240.598 20.49 240.71 20.438C240.832 20.3773 240.966 20.347 241.113 20.347C241.391 20.347 241.607 20.451 241.763 20.659L242.79 21.959C242.409 22.401 242.002 22.7693 241.568 23.064C241.135 23.35 240.684 23.5797 240.216 23.753C239.757 23.9177 239.289 24.0303 238.812 24.091C238.336 24.1603 237.863 24.195 237.395 24.195C236.572 24.195 235.792 24.0433 235.055 23.74C234.319 23.428 233.673 22.9773 233.118 22.388C232.564 21.7987 232.122 21.075 231.792 20.217C231.472 19.359 231.311 18.3797 231.311 17.279C231.311 16.2997 231.454 15.3897 231.74 14.549C232.026 13.7083 232.447 12.9803 233.001 12.365C233.556 11.7497 234.241 11.2687 235.055 10.922C235.879 10.5667 236.828 10.389 237.902 10.389C238.925 10.389 239.822 10.5537 240.593 10.883C241.365 11.2123 242.058 11.689 242.673 12.313L241.737 13.587ZM256.372 10.597V24H254.162C253.703 24 253.408 23.792 253.278 23.376L253.044 22.44C252.775 22.7 252.498 22.9383 252.212 23.155C251.926 23.3717 251.618 23.558 251.289 23.714C250.968 23.87 250.617 23.9913 250.236 24.078C249.863 24.1647 249.456 24.208 249.014 24.208C248.286 24.208 247.636 24.0823 247.064 23.831C246.501 23.5797 246.028 23.2287 245.647 22.778C245.266 22.3273 244.975 21.79 244.776 21.166C244.577 20.542 244.477 19.8573 244.477 19.112V10.597H248.065V19.112C248.065 19.8573 248.234 20.438 248.572 20.854C248.919 21.2613 249.43 21.465 250.106 21.465C250.609 21.465 251.081 21.3567 251.523 21.14C251.965 20.9147 252.385 20.6113 252.784 20.23V10.597H256.372ZM267.667 13.353C267.571 13.5003 267.472 13.6087 267.368 13.678C267.272 13.7387 267.138 13.769 266.965 13.769C266.791 13.769 266.614 13.7257 266.432 13.639C266.25 13.5523 266.046 13.4613 265.821 13.366C265.595 13.262 265.335 13.1667 265.041 13.08C264.755 12.9933 264.421 12.95 264.04 12.95C263.459 12.95 263.008 13.0713 262.688 13.314C262.367 13.548 262.207 13.86 262.207 14.25C262.207 14.5187 262.298 14.744 262.48 14.926C262.662 15.108 262.9 15.2683 263.195 15.407C263.498 15.537 263.84 15.6627 264.222 15.784C264.603 15.8967 264.993 16.0223 265.392 16.161C265.799 16.2997 266.193 16.46 266.575 16.642C266.956 16.824 267.294 17.0537 267.589 17.331C267.892 17.5997 268.135 17.929 268.317 18.319C268.499 18.7003 268.59 19.164 268.59 19.71C268.59 20.36 268.468 20.9623 268.226 21.517C267.992 22.063 267.645 22.5353 267.186 22.934C266.726 23.3327 266.154 23.6447 265.47 23.87C264.785 24.0953 263.996 24.208 263.104 24.208C262.644 24.208 262.189 24.1647 261.739 24.078C261.288 24 260.859 23.8873 260.452 23.74C260.044 23.584 259.663 23.4063 259.308 23.207C258.952 23.0077 258.645 22.791 258.385 22.557L259.217 21.218C259.312 21.062 259.429 20.9407 259.568 20.854C259.715 20.7673 259.901 20.724 260.127 20.724C260.343 20.724 260.543 20.7803 260.725 20.893C260.907 20.997 261.11 21.114 261.336 21.244C261.561 21.3653 261.825 21.4823 262.129 21.595C262.441 21.699 262.826 21.751 263.286 21.751C263.632 21.751 263.931 21.712 264.183 21.634C264.434 21.556 264.638 21.452 264.794 21.322C264.95 21.1833 265.062 21.0317 265.132 20.867C265.21 20.6937 265.249 20.516 265.249 20.334C265.249 20.0393 265.153 19.801 264.963 19.619C264.781 19.4283 264.538 19.2637 264.235 19.125C263.94 18.9863 263.598 18.8607 263.208 18.748C262.818 18.6353 262.419 18.5097 262.012 18.371C261.613 18.2323 261.219 18.0677 260.829 17.877C260.447 17.6863 260.105 17.448 259.802 17.162C259.507 16.8673 259.264 16.5077 259.074 16.083C258.892 15.6583 258.801 15.1427 258.801 14.536C258.801 13.9813 258.909 13.457 259.126 12.963C259.342 12.4603 259.667 12.0183 260.101 11.637C260.534 11.2557 261.071 10.9523 261.713 10.727C262.363 10.5017 263.112 10.389 263.962 10.389C264.915 10.389 265.782 10.545 266.562 10.857C267.342 11.169 267.983 11.5763 268.486 12.079L267.667 13.353ZM279.169 13.353C279.073 13.5003 278.974 13.6087 278.87 13.678C278.774 13.7387 278.64 13.769 278.467 13.769C278.293 13.769 278.116 13.7257 277.934 13.639C277.752 13.5523 277.548 13.4613 277.323 13.366C277.097 13.262 276.837 13.1667 276.543 13.08C276.257 12.9933 275.923 12.95 275.542 12.95C274.961 12.95 274.51 13.0713 274.19 13.314C273.869 13.548 273.709 13.86 273.709 14.25C273.709 14.5187 273.8 14.744 273.982 14.926C274.164 15.108 274.402 15.2683 274.697 15.407C275 15.537 275.342 15.6627 275.724 15.784C276.105 15.8967 276.495 16.0223 276.894 16.161C277.301 16.2997 277.695 16.46 278.077 16.642C278.458 16.824 278.796 17.0537 279.091 17.331C279.394 17.5997 279.637 17.929 279.819 18.319C280.001 18.7003 280.092 19.164 280.092 19.71C280.092 20.36 279.97 20.9623 279.728 21.517C279.494 22.063 279.147 22.5353 278.688 22.934C278.228 23.3327 277.656 23.6447 276.972 23.87C276.287 24.0953 275.498 24.208 274.606 24.208C274.146 24.208 273.691 24.1647 273.241 24.078C272.79 24 272.361 23.8873 271.954 23.74C271.546 23.584 271.165 23.4063 270.81 23.207C270.454 23.0077 270.147 22.791 269.887 22.557L270.719 21.218C270.814 21.062 270.931 20.9407 271.07 20.854C271.217 20.7673 271.403 20.724 271.629 20.724C271.845 20.724 272.045 20.7803 272.227 20.893C272.409 20.997 272.612 21.114 272.838 21.244C273.063 21.3653 273.327 21.4823 273.631 21.595C273.943 21.699 274.328 21.751 274.788 21.751C275.134 21.751 275.433 21.712 275.685 21.634C275.936 21.556 276.14 21.452 276.296 21.322C276.452 21.1833 276.564 21.0317 276.634 20.867C276.712 20.6937 276.751 20.516 276.751 20.334C276.751 20.0393 276.655 19.801 276.465 19.619C276.283 19.4283 276.04 19.2637 275.737 19.125C275.442 18.9863 275.1 18.8607 274.71 18.748C274.32 18.6353 273.921 18.5097 273.514 18.371C273.115 18.2323 272.721 18.0677 272.331 17.877C271.949 17.6863 271.607 17.448 271.304 17.162C271.009 16.8673 270.766 16.5077 270.576 16.083C270.394 15.6583 270.303 15.1427 270.303 14.536C270.303 13.9813 270.411 13.457 270.628 12.963C270.844 12.4603 271.169 12.0183 271.603 11.637C272.036 11.2557 272.573 10.9523 273.215 10.727C273.865 10.5017 274.614 10.389 275.464 10.389C276.417 10.389 277.284 10.545 278.064 10.857C278.844 11.169 279.485 11.5763 279.988 12.079L279.169 13.353ZM286.029 10.597V24H282.441V10.597H286.029ZM286.458 6.788C286.458 7.09133 286.398 7.373 286.276 7.633C286.155 7.893 285.99 8.12267 285.782 8.322C285.583 8.52133 285.345 8.67733 285.067 8.79C284.799 8.90267 284.508 8.959 284.196 8.959C283.902 8.959 283.62 8.90267 283.351 8.79C283.091 8.67733 282.862 8.52133 282.662 8.322C282.463 8.12267 282.303 7.893 282.181 7.633C282.069 7.373 282.012 7.09133 282.012 6.788C282.012 6.48467 282.069 6.203 282.181 5.943C282.303 5.67433 282.463 5.44033 282.662 5.241C282.862 5.04167 283.091 4.88567 283.351 4.773C283.62 4.66033 283.902 4.604 284.196 4.604C284.508 4.604 284.799 4.66033 285.067 4.773C285.345 4.88567 285.583 5.04167 285.782 5.241C285.99 5.44033 286.155 5.67433 286.276 5.943C286.398 6.203 286.458 6.48467 286.458 6.788ZM295.136 10.389C296.142 10.389 297.056 10.5493 297.879 10.87C298.703 11.1907 299.409 11.65 299.998 12.248C300.588 12.8373 301.043 13.5567 301.363 14.406C301.684 15.2553 301.844 16.213 301.844 17.279C301.844 18.345 301.684 19.307 301.363 20.165C301.043 21.0143 300.588 21.738 299.998 22.336C299.409 22.934 298.703 23.3933 297.879 23.714C297.056 24.0347 296.142 24.195 295.136 24.195C294.122 24.195 293.199 24.0347 292.367 23.714C291.544 23.3933 290.838 22.934 290.248 22.336C289.659 21.738 289.2 21.0143 288.87 20.165C288.55 19.307 288.389 18.345 288.389 17.279C288.389 16.213 288.55 15.2553 288.87 14.406C289.2 13.5567 289.659 12.8373 290.248 12.248C290.838 11.65 291.544 11.1907 292.367 10.87C293.199 10.5493 294.122 10.389 295.136 10.389ZM295.136 21.504C296.159 21.504 296.917 21.153 297.411 20.451C297.905 19.7403 298.152 18.6873 298.152 17.292C298.152 15.9053 297.905 14.861 297.411 14.159C296.917 13.4483 296.159 13.093 295.136 13.093C294.088 13.093 293.316 13.4483 292.822 14.159C292.328 14.861 292.081 15.9053 292.081 17.292C292.081 18.6873 292.328 19.7403 292.822 20.451C293.316 21.153 294.088 21.504 295.136 21.504ZM307.425 12.157C307.694 11.897 307.971 11.6587 308.257 11.442C308.552 11.2253 308.86 11.039 309.18 10.883C309.51 10.727 309.861 10.6057 310.233 10.519C310.615 10.4323 311.026 10.389 311.468 10.389C312.196 10.389 312.842 10.5147 313.405 10.766C313.969 11.0173 314.441 11.3683 314.822 11.819C315.212 12.2697 315.503 12.807 315.693 13.431C315.893 14.055 315.992 14.7397 315.992 15.485V24H312.417V15.485C312.417 14.7397 312.244 14.1633 311.897 13.756C311.551 13.34 311.039 13.132 310.363 13.132C309.861 13.132 309.388 13.2403 308.946 13.457C308.504 13.6737 308.084 13.977 307.685 14.367V24H304.097V10.597H306.307C306.758 10.597 307.057 10.805 307.204 11.221L307.425 12.157ZM327.182 13.353C327.087 13.5003 326.987 13.6087 326.883 13.678C326.788 13.7387 326.654 13.769 326.48 13.769C326.307 13.769 326.129 13.7257 325.947 13.639C325.765 13.5523 325.562 13.4613 325.336 13.366C325.111 13.262 324.851 13.1667 324.556 13.08C324.27 12.9933 323.937 12.95 323.555 12.95C322.975 12.95 322.524 13.0713 322.203 13.314C321.883 13.548 321.722 13.86 321.722 14.25C321.722 14.5187 321.813 14.744 321.995 14.926C322.177 15.108 322.416 15.2683 322.71 15.407C323.014 15.537 323.356 15.6627 323.737 15.784C324.119 15.8967 324.509 16.0223 324.907 16.161C325.315 16.2997 325.709 16.46 326.09 16.642C326.472 16.824 326.81 17.0537 327.104 17.331C327.408 17.5997 327.65 17.929 327.832 18.319C328.014 18.7003 328.105 19.164 328.105 19.71C328.105 20.36 327.984 20.9623 327.741 21.517C327.507 22.063 327.161 22.5353 326.701 22.934C326.242 23.3327 325.67 23.6447 324.985 23.87C324.301 24.0953 323.512 24.208 322.619 24.208C322.16 24.208 321.705 24.1647 321.254 24.078C320.804 24 320.375 23.8873 319.967 23.74C319.56 23.584 319.179 23.4063 318.823 23.207C318.468 23.0077 318.16 22.791 317.9 22.557L318.732 21.218C318.828 21.062 318.945 20.9407 319.083 20.854C319.231 20.7673 319.417 20.724 319.642 20.724C319.859 20.724 320.058 20.7803 320.24 20.893C320.422 20.997 320.626 21.114 320.851 21.244C321.077 21.3653 321.341 21.4823 321.644 21.595C321.956 21.699 322.342 21.751 322.801 21.751C323.148 21.751 323.447 21.712 323.698 21.634C323.95 21.556 324.153 21.452 324.309 21.322C324.465 21.1833 324.578 21.0317 324.647 20.867C324.725 20.6937 324.764 20.516 324.764 20.334C324.764 20.0393 324.669 19.801 324.478 19.619C324.296 19.4283 324.054 19.2637 323.75 19.125C323.456 18.9863 323.113 18.8607 322.723 18.748C322.333 18.6353 321.935 18.5097 321.527 18.371C321.129 18.2323 320.734 18.0677 320.344 17.877C319.963 17.6863 319.621 17.448 319.317 17.162C319.023 16.8673 318.78 16.5077 318.589 16.083C318.407 15.6583 318.316 15.1427 318.316 14.536C318.316 13.9813 318.425 13.457 318.641 12.963C318.858 12.4603 319.183 12.0183 319.616 11.637C320.05 11.2557 320.587 10.9523 321.228 10.727C321.878 10.5017 322.628 10.389 323.477 10.389C324.431 10.389 325.297 10.545 326.077 10.857C326.857 11.169 327.499 11.5763 328.001 12.079L327.182 13.353Z" fill="black"/>
<defs>
<clipPath id="clip0">
<rect width="40" height="40" fill="white"/>
</clipPath>
</defs>
</svg>
