<svg width="341" height="40" viewBox="0 0 341 40" fill="none" xmlns="http://www.w3.org/2000/svg"><svg x="0" y="0" width="40" height="40" viewBox="0 0 20 20" fill="none"><defs><linearGradient id="cd-wm" x1="0" y1="20" x2="20" y2="0" gradientUnits="userSpaceOnUse"><stop offset="0" stop-color="#9f33cc"/><stop offset=".25" stop-color="#9f33cc"/><stop offset=".25" stop-color="#00af89"/><stop offset=".5" stop-color="#00af89"/><stop offset=".5" stop-color="#f2b600"/><stop offset=".75" stop-color="#f2b600"/><stop offset=".75" stop-color="#d33"/><stop offset="1" stop-color="#d33"/></linearGradient></defs><path fill="#fff" d="M3 14h3v2.58L9.685 14H13V7H3z"/><path fill="#fff" d="M5 3h12v10H5z"/><path fill="url(#cd-wm)" d="M15 16h-4.685l-4.742 3.32L4 18.5V16H1V5h14zM3 14h3v2.58L9.685 14H13V7H3z"/><path fill="url(#cd-wm)" d="M19 13h-2V3H5V1h14z"/><circle fill="url(#cd-wm)" cx="5" cy="8.7" r="1"/><circle fill="url(#cd-wm)" cx="11" cy="8.7" r="1"/><path fill="url(#cd-wm)" d="M10.4 10.9a2 2 0 0 1-2 2h-.8a2 2 0 0 1-2-2z"/></svg><path d="M69.579 27.396L69.579 27.396Q69.876 27.396 70.106 27.626L70.106 27.626L71.537 29.178Q70.349 30.650 68.614 31.433Q66.879 32.216 64.449 32.216L64.449 32.216Q62.276 32.216 60.541 31.474Q58.806 30.731 57.578 29.408Q56.349 28.085 55.694 26.249Q55.039 24.413 55.039 22.239L55.039 22.239Q55.039 20.039 55.742 18.210Q56.444 16.380 57.719 15.058Q58.995 13.735 60.764 12.999Q62.532 12.263 64.678 12.263L64.678 12.263Q66.811 12.263 68.465 12.965Q70.119 13.667 71.280 14.801L71.280 14.801L70.065 16.489Q69.957 16.651 69.788 16.772Q69.620 16.893 69.323 16.893L69.323 16.893Q69.120 16.893 68.904 16.779Q68.688 16.664 68.431 16.495Q68.175 16.326 67.838 16.124Q67.500 15.922 67.055 15.753Q66.609 15.584 66.022 15.469Q65.434 15.355 64.665 15.355L64.665 15.355Q63.355 15.355 62.269 15.820Q61.182 16.286 60.399 17.170Q59.616 18.055 59.184 19.330Q58.752 20.606 58.752 22.239L58.752 22.239Q58.752 23.886 59.218 25.169Q59.684 26.451 60.480 27.329Q61.276 28.206 62.356 28.672Q63.437 29.138 64.678 29.138L64.678 29.138Q65.421 29.138 66.022 29.057Q66.623 28.976 67.129 28.800Q67.635 28.625 68.087 28.348Q68.540 28.072 68.985 27.666L68.985 27.666Q69.120 27.545 69.269 27.471Q69.417 27.396 69.579 27.396ZM79.636 17.933L79.636 17.933Q81.175 17.933 82.438 18.433Q83.700 18.932 84.598 19.850Q85.496 20.768 85.981 22.091Q86.468 23.414 86.468 25.047L86.468 25.047Q86.468 26.694 85.981 28.017Q85.496 29.340 84.598 30.272Q83.700 31.203 82.438 31.703Q81.175 32.203 79.636 32.203L79.636 32.203Q78.084 32.203 76.815 31.703Q75.546 31.203 74.648 30.272Q73.751 29.340 73.258 28.017Q72.765 26.694 72.765 25.047L72.765 25.047Q72.765 23.414 73.258 22.091Q73.751 20.768 74.648 19.850Q75.546 18.932 76.815 18.433Q78.084 17.933 79.636 17.933ZM79.636 29.637L79.636 29.637Q81.365 29.637 82.195 28.477Q83.025 27.316 83.025 25.075L83.025 25.075Q83.025 22.834 82.195 21.659Q81.365 20.485 79.636 20.485L79.636 20.485Q77.882 20.485 77.038 21.666Q76.194 22.847 76.194 25.075L76.194 25.075Q76.194 27.302 77.038 28.470Q77.882 29.637 79.636 29.637ZM91.908 18.757L92.138 19.850Q92.556 19.431 93.022 19.074Q93.487 18.716 94.007 18.466Q94.527 18.216 95.121 18.075Q95.715 17.933 96.417 17.933L96.417 17.933Q97.551 17.933 98.428 18.318Q99.306 18.703 99.893 19.398Q100.481 20.093 100.784 21.058Q101.088 22.023 101.088 23.184L101.088 23.184L101.088 32L97.754 32L97.754 23.184Q97.754 21.916 97.173 21.220Q96.593 20.525 95.404 20.525L95.404 20.525Q94.540 20.525 93.784 20.916Q93.028 21.308 92.353 21.983L92.353 21.983L92.353 32L89.019 32L89.019 18.149L91.058 18.149Q91.706 18.149 91.908 18.757L91.908 18.757ZM114.102 18.149L116.734 18.149L111.240 32L108.216 32L102.721 18.149L105.475 18.149Q105.853 18.149 106.103 18.325Q106.353 18.500 106.434 18.770L106.434 18.770L109.107 26.168Q109.323 26.816 109.485 27.437Q109.647 28.058 109.768 28.679L109.768 28.679Q109.903 28.058 110.066 27.437Q110.227 26.816 110.457 26.168L110.457 26.168L113.184 18.770Q113.278 18.500 113.521 18.325Q113.764 18.149 114.102 18.149L114.102 18.149ZM121.135 23.482L127.426 23.482Q127.426 22.834 127.244 22.260Q127.062 21.686 126.697 21.254Q126.333 20.822 125.773 20.572Q125.212 20.322 124.470 20.322L124.470 20.322Q123.025 20.322 122.195 21.146Q121.365 21.970 121.135 23.482L121.135 23.482ZM129.641 25.493L121.068 25.493Q121.149 26.559 121.446 27.336Q121.743 28.112 122.229 28.618Q122.715 29.125 123.383 29.374Q124.051 29.624 124.861 29.624L124.861 29.624Q125.671 29.624 126.259 29.435Q126.846 29.246 127.285 29.017Q127.724 28.787 128.054 28.598Q128.385 28.409 128.695 28.409L128.695 28.409Q129.114 28.409 129.316 28.720L129.316 28.720L130.275 29.934Q129.721 30.582 129.033 31.021Q128.344 31.460 127.595 31.723Q126.846 31.986 126.070 32.094Q125.293 32.203 124.564 32.203L124.564 32.203Q123.120 32.203 121.878 31.723Q120.636 31.244 119.718 30.306Q118.800 29.367 118.273 27.984Q117.747 26.600 117.747 24.777L117.747 24.777Q117.747 23.360 118.206 22.111Q118.665 20.863 119.522 19.938Q120.379 19.013 121.615 18.473Q122.850 17.933 124.402 17.933L124.402 17.933Q125.712 17.933 126.819 18.352Q127.926 18.770 128.722 19.573Q129.519 20.377 129.971 21.544Q130.423 22.712 130.423 24.210L130.423 24.210Q130.423 24.966 130.261 25.230Q130.100 25.493 129.641 25.493L129.641 25.493ZM135.810 18.757L136.040 19.850Q136.458 19.431 136.924 19.074Q137.389 18.716 137.909 18.466Q138.429 18.216 139.023 18.075Q139.617 17.933 140.319 17.933L140.319 17.933Q141.453 17.933 142.331 18.318Q143.208 18.703 143.795 19.398Q144.382 20.093 144.686 21.058Q144.990 22.023 144.990 23.184L144.990 23.184L144.990 32L141.655 32L141.655 23.184Q141.655 21.916 141.075 21.220Q140.494 20.525 139.306 20.525L139.306 20.525Q138.442 20.525 137.686 20.916Q136.930 21.308 136.256 21.983L136.256 21.983L136.256 32L132.921 32L132.921 18.149L134.959 18.149Q135.607 18.149 135.810 18.757L135.810 18.757ZM148.257 18.149L151.605 18.149L151.605 32L148.257 32L148.257 18.149ZM152.064 14.113L152.064 14.113Q152.064 14.544 151.889 14.922Q151.713 15.300 151.423 15.584Q151.133 15.867 150.741 16.036Q150.350 16.205 149.904 16.205L149.904 16.205Q149.472 16.205 149.087 16.036Q148.703 15.867 148.419 15.584Q148.136 15.300 147.967 14.922Q147.798 14.544 147.798 14.113L147.798 14.113Q147.798 13.667 147.967 13.276Q148.136 12.884 148.419 12.601Q148.703 12.317 149.087 12.148Q149.472 11.980 149.904 11.980L149.904 11.980Q150.350 11.980 150.741 12.148Q151.133 12.317 151.423 12.601Q151.713 12.884 151.889 13.276Q152.064 13.667 152.064 14.113ZM157.640 23.482L163.931 23.482Q163.931 22.834 163.748 22.260Q163.566 21.686 163.202 21.254Q162.837 20.822 162.277 20.572Q161.717 20.322 160.974 20.322L160.974 20.322Q159.530 20.322 158.699 21.146Q157.869 21.970 157.640 23.482L157.640 23.482ZM166.145 25.493L157.572 25.493Q157.653 26.559 157.950 27.336Q158.247 28.112 158.733 28.618Q159.219 29.125 159.887 29.374Q160.556 29.624 161.366 29.624L161.366 29.624Q162.175 29.624 162.763 29.435Q163.350 29.246 163.789 29.017Q164.228 28.787 164.558 28.598Q164.889 28.409 165.200 28.409L165.200 28.409Q165.618 28.409 165.821 28.720L165.821 28.720L166.779 29.934Q166.226 30.582 165.537 31.021Q164.849 31.460 164.099 31.723Q163.350 31.986 162.574 32.094Q161.798 32.203 161.069 32.203L161.069 32.203Q159.624 32.203 158.382 31.723Q157.140 31.244 156.222 30.306Q155.304 29.367 154.778 27.984Q154.251 26.600 154.251 24.777L154.251 24.777Q154.251 23.360 154.710 22.111Q155.169 20.863 156.026 19.938Q156.884 19.013 158.119 18.473Q159.354 17.933 160.907 17.933L160.907 17.933Q162.216 17.933 163.323 18.352Q164.430 18.770 165.227 19.573Q166.023 20.377 166.475 21.544Q166.928 22.712 166.928 24.210L166.928 24.210Q166.928 24.966 166.766 25.230Q166.604 25.493 166.145 25.493L166.145 25.493ZM172.314 18.757L172.544 19.850Q172.962 19.431 173.428 19.074Q173.894 18.716 174.413 18.466Q174.933 18.216 175.527 18.075Q176.121 17.933 176.823 17.933L176.823 17.933Q177.957 17.933 178.835 18.318Q179.712 18.703 180.299 19.398Q180.887 20.093 181.190 21.058Q181.494 22.023 181.494 23.184L181.494 23.184L181.494 32L178.160 32L178.160 23.184Q178.160 21.916 177.579 21.220Q176.999 20.525 175.811 20.525L175.811 20.525Q174.947 20.525 174.191 20.916Q173.435 21.308 172.760 21.983L172.760 21.983L172.760 32L169.425 32L169.425 18.149L171.464 18.149Q172.112 18.149 172.314 18.757L172.314 18.757ZM189.270 32.216L189.270 32.216Q187.461 32.216 186.496 31.197Q185.531 30.177 185.531 28.382L185.531 28.382L185.531 20.646L184.113 20.646Q183.843 20.646 183.654 20.471Q183.465 20.296 183.465 19.944L183.465 19.944L183.465 18.621L185.693 18.257L186.395 14.477Q186.462 14.207 186.651 14.058Q186.840 13.910 187.137 13.910L187.137 13.910L188.865 13.910L188.865 18.270L192.564 18.270L192.564 20.646L188.865 20.646L188.865 28.152Q188.865 28.800 189.182 29.165Q189.500 29.529 190.053 29.529L190.053 29.529Q190.364 29.529 190.573 29.455Q190.782 29.381 190.937 29.300Q191.093 29.219 191.214 29.145Q191.336 29.070 191.457 29.070L191.457 29.070Q191.606 29.070 191.700 29.145Q191.795 29.219 191.903 29.367L191.903 29.367L192.902 30.988Q192.173 31.595 191.228 31.905Q190.283 32.216 189.270 32.216ZM219.119 22.239L219.119 22.239Q219.119 24.386 218.403 26.181Q217.688 27.977 216.392 29.273Q215.096 30.569 213.273 31.285Q211.451 32 209.223 32L209.223 32L201.785 32L201.785 12.479L209.223 12.479Q211.451 12.479 213.273 13.201Q215.096 13.924 216.392 15.213Q217.688 16.502 218.403 18.297Q219.119 20.093 219.119 22.239ZM215.393 22.239L215.393 22.239Q215.393 20.633 214.967 19.357Q214.542 18.081 213.739 17.197Q212.936 16.313 211.795 15.840Q210.654 15.368 209.223 15.368L209.223 15.368L205.430 15.368L205.430 29.111L209.223 29.111Q210.654 29.111 211.795 28.639Q212.936 28.166 213.739 27.282Q214.542 26.398 214.967 25.122Q215.393 23.846 215.393 22.239ZM221.900 18.149L225.248 18.149L225.248 32L221.900 32L221.900 18.149ZM225.707 14.113L225.707 14.113Q225.707 14.544 225.531 14.922Q225.356 15.300 225.065 15.584Q224.775 15.867 224.384 16.036Q223.992 16.205 223.547 16.205L223.547 16.205Q223.115 16.205 222.730 16.036Q222.345 15.867 222.062 15.584Q221.778 15.300 221.609 14.922Q221.441 14.544 221.441 14.113L221.441 14.113Q221.441 13.667 221.609 13.276Q221.778 12.884 222.062 12.601Q222.345 12.317 222.730 12.148Q223.115 11.980 223.547 11.980L223.547 11.980Q223.992 11.980 224.384 12.148Q224.775 12.317 225.065 12.601Q225.356 12.884 225.531 13.276Q225.707 13.667 225.707 14.113ZM237.857 19.648L237.101 20.849Q236.966 21.065 236.817 21.153Q236.669 21.241 236.439 21.241L236.439 21.241Q236.196 21.241 235.919 21.105Q235.643 20.971 235.278 20.802Q234.914 20.633 234.448 20.498Q233.982 20.363 233.348 20.363L233.348 20.363Q232.362 20.363 231.802 20.782Q231.242 21.200 231.242 21.875L231.242 21.875Q231.242 22.321 231.532 22.624Q231.822 22.928 232.301 23.157Q232.781 23.387 233.388 23.569Q233.996 23.752 234.623 23.968Q235.251 24.184 235.859 24.460Q236.466 24.737 236.945 25.162Q237.425 25.587 237.715 26.181Q238.005 26.776 238.005 27.613L238.005 27.613Q238.005 28.611 237.647 29.455Q237.290 30.299 236.588 30.913Q235.886 31.527 234.853 31.872Q233.820 32.216 232.470 32.216L232.470 32.216Q231.755 32.216 231.073 32.088Q230.391 31.959 229.763 31.730Q229.136 31.500 228.602 31.190Q228.069 30.880 227.664 30.515L227.664 30.515L228.434 29.246Q228.582 29.017 228.785 28.895Q228.987 28.773 229.298 28.773L229.298 28.773Q229.608 28.773 229.885 28.949Q230.162 29.125 230.526 29.327Q230.891 29.529 231.383 29.705Q231.876 29.881 232.632 29.881L232.632 29.881Q233.226 29.881 233.651 29.739Q234.077 29.597 234.353 29.367Q234.630 29.138 234.758 28.834Q234.887 28.530 234.887 28.206L234.887 28.206Q234.887 27.721 234.596 27.410Q234.306 27.099 233.827 26.870Q233.348 26.640 232.733 26.458Q232.119 26.276 231.478 26.060Q230.837 25.844 230.222 25.554Q229.608 25.264 229.129 24.818Q228.650 24.373 228.359 23.724Q228.069 23.076 228.069 22.159L228.069 22.159Q228.069 21.308 228.407 20.538Q228.744 19.769 229.399 19.195Q230.054 18.621 231.032 18.277Q232.011 17.933 233.294 17.933L233.294 17.933Q234.725 17.933 235.899 18.405Q237.074 18.878 237.857 19.648L237.857 19.648ZM251.316 19.864L250.439 21.078Q250.290 21.267 250.148 21.376Q250.007 21.483 249.737 21.483L249.737 21.483Q249.480 21.483 249.237 21.328Q248.994 21.173 248.657 20.977Q248.319 20.782 247.853 20.626Q247.388 20.471 246.699 20.471L246.699 20.471Q245.822 20.471 245.160 20.788Q244.499 21.105 244.060 21.700Q243.621 22.294 243.405 23.137Q243.189 23.981 243.189 25.047L243.189 25.047Q243.189 26.154 243.425 27.018Q243.662 27.883 244.107 28.470Q244.553 29.057 245.187 29.361Q245.822 29.665 246.618 29.665L246.618 29.665Q247.415 29.665 247.907 29.469Q248.400 29.273 248.738 29.037Q249.075 28.800 249.325 28.605Q249.575 28.409 249.885 28.409L249.885 28.409Q250.290 28.409 250.493 28.720L250.493 28.720L251.451 29.934Q250.898 30.582 250.250 31.021Q249.602 31.460 248.906 31.723Q248.211 31.986 247.475 32.094Q246.740 32.203 246.011 32.203L246.011 32.203Q244.728 32.203 243.594 31.723Q242.460 31.244 241.610 30.326Q240.759 29.408 240.266 28.078Q239.774 26.748 239.774 25.047L239.774 25.047Q239.774 23.522 240.212 22.219Q240.651 20.916 241.502 19.965Q242.352 19.013 243.608 18.473Q244.863 17.933 246.497 17.933L246.497 17.933Q248.049 17.933 249.217 18.433Q250.385 18.932 251.316 19.864L251.316 19.864ZM262.130 18.149L265.464 18.149L265.464 32L263.426 32Q262.764 32 262.589 31.392L262.589 31.392L262.359 30.285Q261.509 31.149 260.483 31.683Q259.457 32.216 258.066 32.216L258.066 32.216Q256.932 32.216 256.061 31.831Q255.191 31.447 254.597 30.744Q254.003 30.043 253.699 29.077Q253.395 28.112 253.395 26.951L253.395 26.951L253.395 18.149L256.730 18.149L256.730 26.951Q256.730 28.220 257.317 28.915Q257.904 29.611 259.079 29.611L259.079 29.611Q259.943 29.611 260.699 29.226Q261.455 28.841 262.130 28.166L262.130 28.166L262.130 18.149ZM277.965 19.648L277.209 20.849Q277.074 21.065 276.926 21.153Q276.777 21.241 276.548 21.241L276.548 21.241Q276.305 21.241 276.028 21.105Q275.751 20.971 275.387 20.802Q275.022 20.633 274.556 20.498Q274.091 20.363 273.456 20.363L273.456 20.363Q272.471 20.363 271.910 20.782Q271.350 21.200 271.350 21.875L271.350 21.875Q271.350 22.321 271.640 22.624Q271.931 22.928 272.410 23.157Q272.889 23.387 273.497 23.569Q274.104 23.752 274.732 23.968Q275.360 24.184 275.967 24.460Q276.575 24.737 277.054 25.162Q277.533 25.587 277.823 26.181Q278.114 26.776 278.114 27.613L278.114 27.613Q278.114 28.611 277.756 29.455Q277.398 30.299 276.696 30.913Q275.994 31.527 274.961 31.872Q273.929 32.216 272.579 32.216L272.579 32.216Q271.863 32.216 271.181 32.088Q270.500 31.959 269.872 31.730Q269.244 31.500 268.711 31.190Q268.178 30.880 267.773 30.515L267.773 30.515L268.542 29.246Q268.691 29.017 268.893 28.895Q269.096 28.773 269.406 28.773L269.406 28.773Q269.717 28.773 269.993 28.949Q270.270 29.125 270.635 29.327Q270.999 29.529 271.492 29.705Q271.985 29.881 272.741 29.881L272.741 29.881Q273.335 29.881 273.760 29.739Q274.185 29.597 274.462 29.367Q274.739 29.138 274.867 28.834Q274.995 28.530 274.995 28.206L274.995 28.206Q274.995 27.721 274.705 27.410Q274.415 27.099 273.935 26.870Q273.456 26.640 272.842 26.458Q272.228 26.276 271.586 26.060Q270.945 25.844 270.331 25.554Q269.717 25.264 269.237 24.818Q268.758 24.373 268.468 23.724Q268.178 23.076 268.178 22.159L268.178 22.159Q268.178 21.308 268.515 20.538Q268.853 19.769 269.507 19.195Q270.162 18.621 271.141 18.277Q272.120 17.933 273.402 17.933L273.402 17.933Q274.833 17.933 276.008 18.405Q277.182 18.878 277.965 19.648L277.965 19.648ZM289.832 19.648L289.076 20.849Q288.941 21.065 288.792 21.153Q288.644 21.241 288.414 21.241L288.414 21.241Q288.171 21.241 287.894 21.105Q287.618 20.971 287.253 20.802Q286.889 20.633 286.423 20.498Q285.957 20.363 285.323 20.363L285.323 20.363Q284.337 20.363 283.777 20.782Q283.216 21.200 283.216 21.875L283.216 21.875Q283.216 22.321 283.507 22.624Q283.797 22.928 284.276 23.157Q284.756 23.387 285.363 23.569Q285.971 23.752 286.598 23.968Q287.226 24.184 287.834 24.460Q288.441 24.737 288.920 25.162Q289.400 25.587 289.690 26.181Q289.980 26.776 289.980 27.613L289.980 27.613Q289.980 28.611 289.622 29.455Q289.264 30.299 288.563 30.913Q287.861 31.527 286.828 31.872Q285.795 32.216 284.445 32.216L284.445 32.216Q283.730 32.216 283.048 32.088Q282.366 31.959 281.738 31.730Q281.111 31.500 280.577 31.190Q280.044 30.880 279.639 30.515L279.639 30.515L280.409 29.246Q280.557 29.017 280.760 28.895Q280.962 28.773 281.273 28.773L281.273 28.773Q281.583 28.773 281.860 28.949Q282.137 29.125 282.501 29.327Q282.865 29.529 283.358 29.705Q283.851 29.881 284.607 29.881L284.607 29.881Q285.201 29.881 285.626 29.739Q286.052 29.597 286.328 29.367Q286.605 29.138 286.733 28.834Q286.862 28.530 286.862 28.206L286.862 28.206Q286.862 27.721 286.571 27.410Q286.281 27.099 285.802 26.870Q285.323 26.640 284.708 26.458Q284.094 26.276 283.453 26.060Q282.812 25.844 282.197 25.554Q281.583 25.264 281.104 24.818Q280.625 24.373 280.334 23.724Q280.044 23.076 280.044 22.159L280.044 22.159Q280.044 21.308 280.382 20.538Q280.719 19.769 281.374 19.195Q282.029 18.621 283.007 18.277Q283.986 17.933 285.269 17.933L285.269 17.933Q286.700 17.933 287.874 18.405Q289.049 18.878 289.832 19.648L289.832 19.648ZM292.599 18.149L295.947 18.149L295.947 32L292.599 32L292.599 18.149ZM296.406 14.113L296.406 14.113Q296.406 14.544 296.231 14.922Q296.055 15.300 295.765 15.584Q295.474 15.867 295.083 16.036Q294.692 16.205 294.246 16.205L294.246 16.205Q293.814 16.205 293.429 16.036Q293.044 15.867 292.761 15.584Q292.478 15.300 292.309 14.922Q292.140 14.544 292.140 14.113L292.140 14.113Q292.140 13.667 292.309 13.276Q292.478 12.884 292.761 12.601Q293.044 12.317 293.429 12.148Q293.814 11.980 294.246 11.980L294.246 11.980Q294.692 11.980 295.083 12.148Q295.474 12.317 295.765 12.601Q296.055 12.884 296.231 13.276Q296.406 13.667 296.406 14.113ZM305.478 17.933L305.478 17.933Q307.017 17.933 308.279 18.433Q309.541 18.932 310.439 19.850Q311.337 20.768 311.823 22.091Q312.309 23.414 312.309 25.047L312.309 25.047Q312.309 26.694 311.823 28.017Q311.337 29.340 310.439 30.272Q309.541 31.203 308.279 31.703Q307.017 32.203 305.478 32.203L305.478 32.203Q303.925 32.203 302.656 31.703Q301.387 31.203 300.490 30.272Q299.592 29.340 299.099 28.017Q298.606 26.694 298.606 25.047L298.606 25.047Q298.606 23.414 299.099 22.091Q299.592 20.768 300.490 19.850Q301.387 18.932 302.656 18.433Q303.925 17.933 305.478 17.933ZM305.478 29.637L305.478 29.637Q307.206 29.637 308.036 28.477Q308.866 27.316 308.866 25.075L308.866 25.075Q308.866 22.834 308.036 21.659Q307.206 20.485 305.478 20.485L305.478 20.485Q303.723 20.485 302.879 21.666Q302.036 22.847 302.036 25.075L302.036 25.075Q302.036 27.302 302.879 28.470Q303.723 29.637 305.478 29.637ZM317.750 18.757L317.979 19.850Q318.398 19.431 318.863 19.074Q319.329 18.716 319.849 18.466Q320.368 18.216 320.963 18.075Q321.557 17.933 322.259 17.933L322.259 17.933Q323.392 17.933 324.270 18.318Q325.148 18.703 325.735 19.398Q326.322 20.093 326.626 21.058Q326.930 22.023 326.930 23.184L326.930 23.184L326.930 32L323.595 32L323.595 23.184Q323.595 21.916 323.014 21.220Q322.434 20.525 321.246 20.525L321.246 20.525Q320.382 20.525 319.626 20.916Q318.870 21.308 318.195 21.983L318.195 21.983L318.195 32L314.861 32L314.861 18.149L316.899 18.149Q317.547 18.149 317.750 18.757L317.750 18.757ZM339.296 19.648L338.540 20.849Q338.405 21.065 338.256 21.153Q338.108 21.241 337.878 21.241L337.878 21.241Q337.635 21.241 337.358 21.105Q337.082 20.971 336.717 20.802Q336.353 20.633 335.887 20.498Q335.421 20.363 334.787 20.363L334.787 20.363Q333.801 20.363 333.241 20.782Q332.680 21.200 332.680 21.875L332.680 21.875Q332.680 22.321 332.971 22.624Q333.261 22.928 333.740 23.157Q334.220 23.387 334.827 23.569Q335.435 23.752 336.062 23.968Q336.690 24.184 337.298 24.460Q337.905 24.737 338.384 25.162Q338.864 25.587 339.154 26.181Q339.444 26.776 339.444 27.613L339.444 27.613Q339.444 28.611 339.086 29.455Q338.728 30.299 338.026 30.913Q337.325 31.527 336.292 31.872Q335.259 32.216 333.909 32.216L333.909 32.216Q333.194 32.216 332.512 32.088Q331.830 31.959 331.202 31.730Q330.575 31.500 330.041 31.190Q329.508 30.880 329.103 30.515L329.103 30.515L329.873 29.246Q330.021 29.017 330.224 28.895Q330.426 28.773 330.737 28.773L330.737 28.773Q331.047 28.773 331.324 28.949Q331.601 29.125 331.965 29.327Q332.329 29.529 332.822 29.705Q333.315 29.881 334.071 29.881L334.071 29.881Q334.665 29.881 335.090 29.739Q335.516 29.597 335.792 29.367Q336.069 29.138 336.197 28.834Q336.326 28.530 336.326 28.206L336.326 28.206Q336.326 27.721 336.035 27.410Q335.745 27.099 335.266 26.870Q334.787 26.640 334.172 26.458Q333.558 26.276 332.917 26.060Q332.276 25.844 331.661 25.554Q331.047 25.264 330.568 24.818Q330.089 24.373 329.798 23.724Q329.508 23.076 329.508 22.159L329.508 22.159Q329.508 21.308 329.846 20.538Q330.183 19.769 330.838 19.195Q331.493 18.621 332.471 18.277Q333.450 17.933 334.733 17.933L334.733 17.933Q336.163 17.933 337.338 18.405Q338.513 18.878 339.296 19.648L339.296 19.648Z" fill="#202122"/></svg>
