<svg xmlns="http://www.w3.org/2000/svg" width="20" height="20" viewBox="0 0 20 20" fill="none"><defs><linearGradient id="cd-logo-d" x1="0" y1="20" x2="20" y2="0" gradientUnits="userSpaceOnUse"><stop offset="0" stop-color="#9f33cc"/><stop offset=".25" stop-color="#9f33cc"/><stop offset=".25" stop-color="#00af89"/><stop offset=".5" stop-color="#00af89"/><stop offset=".5" stop-color="#f2b600"/><stop offset=".75" stop-color="#f2b600"/><stop offset=".75" stop-color="#d33"/><stop offset="1" stop-color="#d33"/></linearGradient></defs><path fill="#101418" d="M3 14h3v2.58L9.685 14H13V7H3z"/><path fill="#101418" d="M5 3h12v10H5z"/><path fill="url(#cd-logo-d)" d="M15 16h-4.685l-4.742 3.32L4 18.5V16H1V5h14zM3 14h3v2.58L9.685 14H13V7H3z"/><path fill="url(#cd-logo-d)" d="M19 13h-2V3H5V1h14z"/><circle fill="url(#cd-logo-d)" cx="5" cy="8.7" r="1"/><circle fill="url(#cd-logo-d)" cx="11" cy="8.7" r="1"/><path fill="url(#cd-logo-d)" d="M10.4 10.9a2 2 0 0 1-2 2h-.8a2 2 0 0 1-2-2z"/></svg>
