<svg xmlns="http://www.w3.org/2000/svg" width="40" height="40" fill="none" viewBox="0 0 40 40"><g clip-path="url(#a)"><path fill="#d33" d="M36 8h-2v10.5l6 6V12a4 4 0 0 0-4-4m-5.172-6.828A4 4 0 0 0 28 0H15.5l5.791 5.795a2.4 2.4 0 0 1 3.155 3.15L32 16.5V4a4 4 0 0 0-1.172-2.828"/><path fill="#f2b600" d="m32 32 8 8V24l-6-6v4a4 4 0 0 1-4 4h-4.5l6 6z"/><path fill="#f2b600" d="M30.828 22.828A4 4 0 0 0 32 20v-4l-7.429-7.429A2.4 2.4 0 1 1 21.67 5.67L16 0H4A4 4 0 0 0 .933 1.433l6.144 6.144a2.4 2.4 0 1 1 2.786 2.786L13.1 13.6h11.78c-1.1 3.125-3.774 4.384-7.07 4.71L23.5 24H28a4 4 0 0 0 2.828-1.172"/><path fill="#00af89" d="M1.172 1.172A4 4 0 0 0 0 4v12.5L7.5 24H24l-5.738-5.742c-.774.099-1.585.142-2.422.142-4.176 0-7.728-1.072-9.04-4.8h6.802l-3.343-3.344a2.401 2.401 0 0 1-3.076-3.072zM32 32l-6-6H9.5l6 6z"/><path fill="#9f33cc" d="M9.172 30.828A4 4 0 0 0 12 32h4l-6-6H8v2a4 4 0 0 0 1.172 2.828M0 32l8-8-8-8z"/></g><defs><clipPath id="a"><path fill="#fff" d="M0 0h40v40H0z"/></clipPath></defs></svg>