<svg width="20" height="20" viewBox="0 0 20 20" fill="none" xmlns="http://www.w3.org/2000/svg"><g clip-path="url(#clip0_2_15)"><mask id="mask0_2_15" style="mask-type:luminance" maskUnits="userSpaceOnUse" x="-31" y="-29" width="80" height="80"><path d="M9 -29L-31 11L9 51L49 11L9 -29Z" fill="white"/><path d="M4.25 18.25C4.94 17.56 4.94 16.44 4.25 15.75C3.56 15.06 2.44 15.06 1.75 15.75C1.06 16.44 1.06 17.56 1.75 18.25C2.44 18.94 3.56 18.94 4.25 18.25Z" fill="black"/></mask><g mask="url(#mask0_2_15)"><path d="M5 19L12.5 11.5C13.53 11.78 14.62 11.77 15.64 11.47C16.66 11.16 17.58 10.57 18.28 9.76C18.98 8.96 19.44 7.97 19.6 6.91C19.76 5.86 19.62 4.78 19.2 3.8L15.09 7.91C14.69 8.31 14.15 8.54 13.59 8.54C13.02 8.54 12.48 8.31 12.09 7.91C11.69 7.52 11.46 6.98 11.46 6.41C11.46 5.85 11.69 5.31 12.09 4.91L16.2 0.8C15.22 0.38 14.14 0.24 13.09 0.4C12.03 0.56 11.04 1.02 10.24 1.72C9.43 2.42 8.84 3.34 8.54 4.36C8.23 5.38 8.22 6.47 8.5 7.5L1 15C0.47 15.53 0.17 16.25 0.17 17C0.17 17.75 0.47 18.47 1 19C1.53 19.53 2.25 19.83 3 19.83C3.75 19.83 4.47 19.53 5 19Z" fill="black"/></g></g><defs><clipPath id="clip0_2_15"><rect width="20" height="20" fill="white"/></clipPath></defs></svg>